<?xml version="1.0" standalone="no"?>
<!DOCTYPE svg PUBLIC "-//W3C//DTD SVG 20010904//EN"
 "http://www.w3.org/TR/2001/REC-SVG-20010904/DTD/svg10.dtd">
<svg version="1.0" xmlns="http://www.w3.org/2000/svg"
 width="180.000000pt" height="180.000000pt" viewBox="0 0 180.000000 180.000000"
 preserveAspectRatio="xMidYMid meet">
<metadata>
Created by potrace 1.14, written by Peter Selinger 2001-2017
</metadata>
<g transform="translate(0.000000,180.000000) scale(0.100000,-0.100000)"
fill="#000000" stroke="none">
<path d="M712 1793 c-6 -3 -10 -8 -8 -11 2 -4 -12 -7 -32 -6 -47 1 -73 -6 -66
-18 4 -6 -3 -5 -14 1 -15 8 -23 8 -28 -1 -5 -7 -3 -8 6 -3 9 5 11 4 6 -4 -6
-9 -11 -9 -22 0 -12 10 -17 6 -16 -11 0 -3 -8 -7 -19 -7 -12 -1 -17 3 -13 10
3 7 0 5 -8 -3 -7 -8 -20 -15 -28 -15 -8 0 -14 -5 -13 -11 1 -6 -6 -11 -15 -11
-35 0 -43 -3 -36 -15 5 -7 2 -9 -7 -6 -21 8 -53 -17 -43 -34 6 -10 4 -10 -9 1
-15 12 -17 11 -17 -3 0 -16 -15 -22 -23 -8 -2 4 -2 1 0 -7 2 -8 -2 -11 -11 -8
-16 6 -43 -19 -32 -30 3 -3 6 0 6 7 0 7 3 11 6 7 4 -3 19 0 35 9 16 8 32 15
36 15 5 1 19 9 33 19 14 9 31 15 38 13 7 -3 10 1 6 10 -4 11 2 14 22 11 15 -1
37 3 48 9 12 6 32 13 45 14 13 1 31 5 40 9 17 7 43 11 101 15 19 1 41 7 49 13
11 8 13 8 7 -1 -4 -7 -3 -13 1 -13 5 0 15 6 22 13 11 10 13 10 7 0 -5 -8 -1
-13 9 -13 10 0 13 5 9 13 -5 8 -2 8 9 -2 9 -7 17 -10 17 -6 0 4 6 2 14 -4 11
-9 16 -9 22 0 5 8 3 9 -6 4 -9 -6 -11 -4 -5 4 5 9 10 10 18 2 6 -6 25 -11 43
-11 18 0 35 -6 37 -12 4 -10 6 -10 6 0 1 10 6 10 21 2 11 -6 20 -8 20 -4 0 3
6 2 13 -5 8 -6 23 -9 35 -6 12 2 22 -1 22 -7 0 -5 7 -7 15 -4 9 3 18 -1 22
-10 3 -8 12 -13 19 -10 7 3 16 1 19 -5 4 -5 11 -7 16 -4 5 4 9 1 9 -4 0 -6 7
-11 15 -11 8 0 15 -5 15 -10 0 -6 3 -9 8 -9 19 3 33 -2 27 -10 -3 -6 4 -8 15
-6 18 3 25 -6 21 -28 -1 -5 3 -6 9 -2 11 7 110 -63 110 -78 0 -4 4 -6 9 -2 5
3 12 -4 16 -15 3 -11 14 -20 22 -20 9 0 14 -3 10 -6 -3 -3 4 -17 16 -30 38
-41 46 -52 40 -58 -4 -3 1 -6 11 -6 9 0 15 -4 12 -9 -3 -4 3 -16 14 -26 11
-10 17 -22 14 -27 -3 -5 5 -21 17 -35 13 -15 18 -23 11 -19 -7 4 -4 -8 8 -28
11 -20 17 -36 15 -36 -3 0 1 -16 9 -35 13 -30 26 -95 31 -145 0 -9 4 -21 9
-28 4 -6 4 -12 -1 -12 -4 0 -7 -29 -7 -65 1 -36 -5 -89 -13 -118 -8 -29 -15
-56 -17 -62 -8 -35 -31 -93 -44 -113 -8 -12 -11 -22 -7 -22 3 0 -3 -13 -15
-30 -12 -16 -18 -30 -13 -30 4 -1 -2 -9 -14 -19 -12 -10 -19 -21 -16 -25 3 -3
-2 -8 -11 -12 -9 -3 -16 -12 -16 -20 0 -7 -10 -20 -22 -28 -12 -9 -19 -16 -15
-16 10 0 -110 -120 -120 -120 -4 0 -23 -14 -41 -30 -19 -16 -47 -35 -63 -42
-16 -7 -29 -16 -29 -20 0 -3 -14 -9 -30 -13 -18 -4 -27 -11 -24 -17 5 -7 -1
-9 -15 -5 -14 3 -24 0 -28 -9 -3 -8 -9 -12 -13 -9 -5 3 -11 1 -15 -5 -4 -6
-11 -8 -16 -5 -5 4 -9 1 -9 -4 0 -6 -5 -11 -11 -11 -5 0 -7 6 -3 13 6 10 4 10
-7 0 -7 -7 -24 -13 -37 -13 -14 0 -21 -4 -16 -11 4 -7 0 -9 -14 -5 -11 4 -23
2 -26 -3 -4 -5 -18 -8 -31 -5 -14 2 -25 1 -25 -4 0 -5 -10 -8 -22 -7 -13 1
-30 -1 -39 -6 -9 -5 -21 -3 -27 3 -9 9 -12 9 -12 -1 0 -9 -4 -10 -12 -4 -15
11 -28 11 -46 -1 -9 -5 -18 -1 -28 10 -10 14 -13 15 -9 3 6 -17 -19 -20 -43
-5 -6 4 -12 5 -12 2 0 -3 -11 -1 -25 4 -17 7 -25 6 -25 -1 0 -8 -5 -7 -15 1
-8 7 -15 9 -15 5 0 -4 -7 -2 -16 6 -13 10 -17 10 -25 -2 -7 -12 -9 -11 -9 3 0
11 -6 15 -20 11 -12 -3 -20 0 -20 7 0 10 -4 9 -17 -1 -10 -7 -15 -9 -11 -5 10
12 -11 38 -24 30 -12 -8 -88 26 -88 38 0 5 -5 6 -10 3 -5 -3 -10 -2 -10 4 0 6
-6 8 -14 5 -8 -3 -20 4 -28 15 -8 12 -18 18 -21 14 -4 -3 -16 6 -28 21 -17 21
-24 25 -30 14 -6 -9 -9 -7 -9 9 0 13 -5 22 -12 20 -7 -1 -12 4 -10 11 1 8 -2
11 -7 8 -5 -4 -11 -1 -13 6 -3 7 -7 5 -11 -6 -4 -9 -3 -15 2 -12 4 3 20 -10
36 -29 15 -19 31 -32 36 -29 5 3 9 0 9 -6 0 -17 26 -40 45 -40 9 0 13 -4 10
-10 -3 -5 1 -10 9 -10 9 0 16 -4 16 -10 0 -5 10 -10 22 -10 12 0 18 -3 15 -7
-7 -6 44 -33 60 -32 3 1 9 -3 12 -8 10 -14 82 -44 92 -38 5 4 12 0 15 -8 3 -8
13 -14 22 -12 9 1 19 -1 22 -6 3 -4 19 -9 35 -11 17 -2 41 -10 55 -18 24 -13
24 -12 10 5 -14 17 -14 17 15 3 38 -19 320 -26 295 -7 -12 9 -11 10 5 4 38
-13 55 -14 61 -3 5 7 2 8 -6 3 -9 -5 -11 -4 -6 4 6 9 11 9 21 1 10 -8 15 -8
20 0 4 7 16 10 26 7 11 -3 25 0 32 7 7 7 20 12 30 10 9 -1 17 2 17 7 0 6 4 8
9 5 4 -3 26 3 48 14 22 10 52 22 67 26 15 3 30 13 33 20 3 8 9 11 14 8 5 -3 9
0 9 6 0 6 5 8 10 5 6 -3 10 -1 10 5 0 6 5 8 10 5 6 -3 10 2 10 12 0 14 2 15 9
4 7 -11 11 -9 20 8 7 12 16 19 21 16 5 -3 16 5 25 17 8 13 19 23 23 23 4 0 6
4 4 8 -1 5 1 6 6 3 10 -6 92 69 92 85 0 5 3 8 8 6 4 -2 17 7 29 20 12 13 20
23 17 23 -3 0 10 19 28 43 42 53 56 75 69 109 6 16 15 28 20 28 5 0 9 11 9 25
0 14 6 28 14 31 7 3 12 16 10 30 -1 13 1 24 6 24 4 0 11 17 16 38 9 43 11 51
14 55 8 10 13 60 15 167 5 184 -31 307 -138 478 -21 34 -43 62 -48 62 -6 0 -8
4 -4 9 3 5 -4 12 -15 16 -11 3 -19 9 -17 13 1 4 -15 24 -35 44 -21 20 -38 34
-38 32 0 -3 -11 6 -25 18 -58 52 -65 58 -65 51 0 -3 -10 3 -22 15 -13 11 -30
22 -38 24 -8 2 -18 6 -21 11 -3 4 -16 10 -30 12 -13 3 -25 9 -27 15 -2 6 -8 8
-13 4 -5 -3 -9 0 -9 7 0 9 -3 9 -14 0 -11 -9 -16 -9 -22 0 -5 8 -3 9 6 4 9 -5
11 -4 6 3 -4 7 -20 12 -37 12 -16 0 -29 4 -29 8 0 4 -8 9 -17 10 -31 3 -48 7
-60 15 -6 4 -14 3 -18 -2 -3 -6 -12 -8 -20 -5 -8 4 -12 11 -8 18 4 6 -2 4 -12
-4 -10 -8 -16 -10 -12 -3 6 9 -27 12 -133 12 -106 0 -139 -3 -133 -12 5 -9 3
-9 -8 -1 -8 6 -20 9 -27 7z"/>
<path d="M947 1410 c-13 -18 -15 -19 -21 -5 -4 10 -11 13 -18 8 -7 -4 -15 -8
-18 -9 -20 -4 -39 -18 -34 -25 3 -5 -1 -9 -9 -9 -8 0 -27 -24 -43 -52 l-29
-53 -2 -239 c-2 -162 1 -244 9 -253 6 -7 8 -13 4 -13 -3 0 6 -22 21 -50 15
-28 34 -50 42 -50 8 0 11 -3 8 -7 -11 -10 13 -32 29 -26 8 3 14 0 14 -7 0 -6
5 -8 10 -5 6 4 8 12 4 18 -3 7 1 5 8 -4 10 -12 19 -14 37 -7 17 6 27 5 33 -4
6 -10 8 -10 8 2 0 12 2 13 9 1 7 -11 9 -11 14 0 5 12 6 12 6 0 1 -11 4 -11 17
0 12 10 17 10 23 0 6 -9 15 -9 34 -2 15 6 27 7 27 2 0 -4 11 -6 25 -3 14 2 22
9 19 16 -3 6 1 3 9 -7 11 -14 16 -15 20 -5 4 10 6 10 6 1 1 -7 6 -13 12 -13 5
0 8 3 6 8 -3 4 6 8 19 8 13 1 24 -1 24 -5 0 -4 7 -8 14 -8 8 0 14 5 13 11 -1
6 4 10 10 8 15 -2 53 33 53 50 0 6 3 8 7 5 8 -8 37 52 34 71 -1 6 2 12 7 12 4
0 9 35 10 78 l3 77 -65 0 c-35 0 -67 -3 -71 -6 -3 -4 -8 -19 -11 -35 -8 -46
-30 -64 -65 -54 -20 6 -27 5 -23 -2 5 -7 -2 -9 -19 -4 -14 3 -29 1 -32 -4 -4
-7 -11 -7 -18 -2 -19 14 -58 22 -51 10 5 -7 -2 -9 -20 -4 -18 4 -26 2 -26 -6
0 -9 -3 -9 -8 -2 -4 5 -17 10 -29 11 -13 0 -29 1 -37 2 -23 2 -30 38 -31 181
-1 95 2 143 12 163 16 32 4 29 125 32 72 2 96 0 91 -9 -5 -8 -3 -8 8 0 26 19
127 5 113 -17 -3 -5 -1 -9 5 -9 5 0 8 -11 7 -24 -4 -30 7 -49 28 -52 9 -1 14
1 12 5 -3 4 13 7 34 7 21 0 36 -4 34 -8 -3 -4 1 -5 8 -3 16 6 42 45 31 45 -5
0 -9 29 -9 65 -1 36 -7 72 -14 80 -7 8 -9 15 -5 15 4 0 2 7 -5 15 -7 8 -9 15
-5 15 4 0 -4 9 -19 21 -14 11 -24 25 -21 30 4 5 -3 9 -14 9 -12 0 -21 5 -21
11 0 5 -4 8 -9 4 -5 -3 -12 -1 -16 4 -3 6 -15 7 -29 1 -13 -5 -29 -4 -37 1
-19 12 -32 11 -24 -1 4 -6 -2 -7 -17 -1 -13 4 -32 5 -43 1 -11 -4 -28 -3 -37
2 -14 6 -18 5 -18 -7 0 -9 -5 -13 -10 -10 -6 4 -8 10 -5 14 2 5 -10 7 -27 5
-18 -2 -35 -10 -40 -17 -6 -9 -8 -9 -8 2 0 9 -7 11 -21 8 -16 -4 -18 -3 -8 9
6 8 9 14 6 14 -3 0 -12 -9 -20 -20z"/>
<path d="M150 1403 c0 -12 -3 -14 -8 -6 -4 7 -16 11 -27 9 -18 -3 -19 -15 -20
-384 0 -240 4 -386 10 -394 11 -15 34 -16 52 -5 7 5 13 5 13 0 0 -4 15 -8 34
-8 27 0 33 4 31 18 -2 9 -1 17 3 17 9 0 8 82 0 96 -4 5 -3 16 2 24 5 8 5 21 0
30 -5 9 -5 22 0 30 5 9 5 19 -2 27 -6 8 -7 13 -1 13 11 0 9 42 -2 59 -3 6 -1
11 5 11 7 0 9 7 6 17 -4 9 9 1 27 -18 19 -19 33 -35 32 -37 -2 -2 15 -21 37
-43 22 -21 38 -39 34 -39 -3 0 9 -14 27 -31 17 -17 32 -35 32 -39 0 -5 4 -12
9 -17 6 -5 6 -2 1 7 -8 13 -7 13 8 1 9 -7 17 -18 17 -24 0 -5 11 -20 24 -32
14 -13 22 -26 19 -29 -4 -3 1 -6 10 -6 8 0 19 -9 22 -21 6 -17 9 -18 22 -7 13
10 17 10 20 1 4 -10 10 -10 25 -2 16 9 19 8 12 -3 -6 -11 -5 -11 9 1 9 7 17 9
17 4 0 -6 11 -8 25 -5 14 2 22 9 19 16 -3 6 1 3 9 -7 10 -12 17 -14 22 -8 4 8
12 8 25 1 13 -7 19 -6 24 6 4 10 -10 31 -37 59 -23 24 -64 68 -92 96 -27 29
-49 56 -47 60 1 5 -3 9 -9 9 -13 0 -49 38 -49 52 0 5 -4 6 -10 3 -5 -3 -12 6
-16 20 -3 13 -9 23 -14 20 -4 -2 -20 12 -36 31 -16 20 -35 42 -42 50 -8 8 -9
14 -3 14 6 0 8 8 4 18 -3 9 -3 14 1 11 8 -8 136 117 136 132 0 6 3 9 8 7 9 -5
61 49 54 56 -3 4 3 6 13 6 10 0 15 3 12 7 -4 3 8 17 25 30 18 12 28 23 24 23
-4 0 -1 7 8 15 8 9 18 15 22 15 15 -3 22 25 11 39 -9 12 -9 13 1 7 6 -4 12 -2
12 3 0 14 -17 14 -26 0 -4 -8 -9 -7 -15 2 -7 12 -9 12 -9 0 0 -11 -3 -11 -15
-1 -11 9 -15 9 -15 1 0 -8 -6 -9 -17 -4 -10 5 -41 8 -70 7 -47 -1 -56 -6 -93
-43 -22 -22 -37 -41 -33 -41 4 0 -5 -9 -22 -20 -16 -11 -27 -20 -23 -20 4 0
-15 -22 -41 -49 -27 -28 -46 -52 -43 -55 3 -3 -2 -6 -12 -6 -9 0 -14 -4 -11
-10 3 -5 1 -10 -5 -10 -5 0 -19 -15 -30 -32 -16 -27 -20 -29 -21 -13 -1 11 -1
23 0 28 0 4 -4 7 -10 7 -5 0 -7 6 -3 12 11 18 12 48 2 48 -5 0 -6 4 -3 10 11
18 13 105 2 118 -6 8 -6 12 1 12 6 0 9 10 7 23 -5 25 -38 54 -43 37 -2 -5 -8
-10 -13 -10 -6 0 -7 6 -3 13 5 7 0 6 -11 -3 -11 -9 -16 -10 -11 -2 4 6 2 12
-3 12 -6 0 -11 -8 -11 -17z"/>
<path d="M405 579 c6 -8 1 -11 -18 -7 -38 7 -52 -4 -38 -31 7 -12 16 -19 21
-16 6 4 8 -7 6 -25 -2 -17 1 -33 5 -36 5 -3 6 -11 2 -17 -11 -18 -12 -37 -2
-37 5 0 9 -8 9 -17 0 -14 2 -15 9 -5 5 8 9 39 10 70 0 31 5 58 10 61 20 14 21
46 0 59 -15 10 -19 10 -14 1z"/>
<path d="M501 583 c-1 -7 -8 -13 -18 -13 -9 0 -13 -3 -10 -7 4 -3 -1 -12 -11
-19 -12 -10 -13 -13 -3 -14 10 0 11 -3 2 -14 -7 -8 -10 -27 -7 -43 2 -15 5
-33 5 -39 2 -19 35 -51 53 -51 9 0 20 7 22 14 3 8 11 11 18 7 7 -5 9 -2 5 8
-3 9 -3 19 1 23 10 10 11 78 2 90 -8 10 -10 16 -10 35 0 6 -9 10 -19 10 -11 0
-22 6 -24 13 -4 10 -6 10 -6 0z m19 -64 c0 -5 5 -7 12 -3 7 5 9 2 5 -9 -3 -9
-3 -17 1 -19 4 -2 0 -19 -10 -38 -12 -26 -17 -30 -18 -15 0 17 -2 17 -10 5 -8
-13 -10 -13 -11 3 -2 21 -2 64 0 77 1 13 31 13 31 -1z"/>
<path d="M635 580 c3 -5 1 -10 -5 -10 -17 0 -36 -23 -38 -45 -6 -73 -1 -98 23
-121 28 -26 45 -31 45 -13 0 5 5 7 10 4 6 -3 10 0 11 7 0 7 2 20 4 28 1 10 -5
17 -17 17 -13 1 -18 -3 -14 -12 3 -9 0 -12 -9 -9 -27 11 -30 83 -5 107 10 9
11 9 6 0 -4 -8 -1 -13 7 -13 16 0 27 27 20 48 -3 6 -9 10 -14 6 -5 -3 -9 0 -9
5 0 6 -5 11 -11 11 -5 0 -7 -4 -4 -10z"/>
<path d="M741 577 c-1 -10 -8 -20 -16 -23 -8 -4 -12 -10 -9 -15 3 -5 1 -9 -4
-9 -8 0 -9 -25 -3 -103 0 -10 6 -15 11 -12 9 5 14 -6 12 -25 0 -4 10 -6 24 -6
13 0 24 4 24 9 0 4 5 5 10 2 6 -3 10 0 10 7 0 7 7 25 14 41 9 16 11 27 4 27
-5 0 -8 6 -5 14 3 8 1 31 -4 50 -8 28 -15 36 -34 36 -13 0 -26 6 -28 13 -3 7
-6 5 -6 -6z m40 -59 c6 -51 4 -76 -5 -71 -5 4 -7 -1 -3 -10 8 -21 5 -21 -19 1
-24 21 -30 52 -12 63 10 7 10 9 -2 9 -13 0 -13 1 0 10 21 13 40 12 41 -2z"/>
<path d="M1095 567 c-4 -15 -5 -39 -3 -52 3 -14 1 -25 -4 -25 -5 0 -5 -8 1
-18 6 -11 6 -24 0 -35 -7 -12 -6 -17 3 -17 10 0 10 -2 -1 -9 -11 -7 -11 -10 0
-17 18 -11 61 -15 54 -4 -3 4 3 6 13 3 12 -3 18 2 19 15 1 12 -6 22 -18 25
-10 3 -19 1 -19 -4 0 -4 -7 -6 -15 -3 -13 5 -13 8 1 21 12 13 17 13 32 2 14
-11 14 -10 -1 8 -18 21 -18 21 0 17 13 -4 20 0 20 10 0 9 -4 16 -8 16 -4 0
-15 3 -25 7 -13 5 -15 3 -9 -7 5 -9 4 -11 -4 -6 -9 6 -9 11 0 22 14 17 43 19
33 2 -4 -6 -3 -8 2 -5 5 3 10 20 11 39 1 18 0 28 -3 21 -4 -8 -13 -9 -30 -3
-17 7 -24 6 -25 -3 0 -6 -4 -3 -9 8 -7 18 -8 18 -15 -8z"/>
<path d="M1225 564 c-10 -14 -21 -33 -23 -42 -8 -43 -9 -73 -1 -78 5 -3 9 -15
9 -26 0 -12 3 -18 7 -15 3 4 11 -1 18 -10 23 -30 75 15 54 48 -8 12 -10 12
-20 -1 -8 -11 -12 -12 -16 -2 -2 6 -10 9 -16 5 -7 -3 -9 -3 -5 2 4 4 3 14 -2
20 -13 16 8 68 25 61 7 -2 18 0 26 5 12 7 12 9 -1 9 -10 0 -11 3 -3 8 8 5 8
12 -3 26 -10 14 -14 16 -14 5 0 -10 -2 -11 -8 -2 -6 9 -13 5 -27 -13z"/>
<path d="M235 570 c3 -5 3 -10 -2 -10 -15 0 -6 -130 11 -149 9 -10 14 -20 11
-23 -3 -2 3 -5 12 -5 22 0 40 18 53 51 6 18 6 26 -1 26 -6 0 -7 5 -3 12 7 11
8 32 5 83 -1 8 -7 15 -15 15 -10 0 -14 -16 -16 -57 -2 -83 -2 -84 -14 -80 -6
2 -12 19 -13 38 -2 19 -5 39 -7 45 -2 6 0 17 4 24 5 8 3 19 -5 27 -16 15 -29
18 -20 3z"/>
<path d="M919 570 c-11 -6 -15 -18 -11 -35 6 -35 -11 -31 -25 5 -14 38 -38 39
-42 3 -3 -30 -3 -29 1 -91 2 -23 -1 -44 -7 -46 -5 -3 -4 -5 3 -5 7 -1 10 -5 7
-11 -3 -6 1 -7 9 -4 9 3 14 10 11 14 -3 5 1 11 7 13 8 3 9 6 2 6 -7 1 -9 12
-6 26 4 24 5 24 17 8 7 -10 11 -21 9 -25 -3 -4 4 -16 15 -27 20 -20 20 -20 26
0 4 11 4 23 1 26 -3 3 -1 14 5 24 6 13 6 19 -1 19 -12 0 -9 22 5 32 7 5 7 8 0
8 -5 0 -10 13 -11 30 -1 17 3 27 9 23 6 -3 7 -1 3 5 -8 14 -7 14 -27 2z"/>
<path d="M965 514 c1 -41 -2 -64 -9 -64 -6 0 -5 -4 2 -9 8 -4 13 -11 13 -15
-4 -26 1 -46 10 -46 5 0 8 4 4 9 -3 5 -1 12 4 15 5 3 7 20 6 38 -3 30 -2 31
11 13 8 -11 13 -24 11 -30 -2 -5 5 -18 16 -27 25 -22 28 -22 20 -1 -4 9 -2 14
3 10 12 -7 12 158 1 169 -4 4 -7 2 -7 -5 0 -7 -4 -9 -10 -6 -5 3 -9 -9 -8 -30
1 -19 -2 -38 -5 -42 -4 -3 -7 3 -7 15 0 11 -5 24 -10 27 -6 4 -8 9 -6 13 4 8
-14 26 -30 29 -7 1 -10 -23 -9 -63z"/>
<path d="M1340 570 c-30 -6 -40 -40 -12 -40 16 0 18 -8 17 -57 -1 -59 10 -98
24 -89 4 3 8 33 8 67 0 46 4 65 16 74 40 29 5 58 -53 45z"/>
<path d="M138 552 c0 -9 -1 -23 -1 -29 1 -7 -3 -13 -8 -13 -4 0 -6 -9 -4 -20
2 -11 0 -22 -4 -24 -4 -3 -8 -24 -9 -48 l-2 -43 19 22 c14 17 21 19 31 10 10
-9 11 -9 6 3 -4 8 1 4 12 -9 21 -25 38 -15 28 17 -3 9 -7 28 -10 42 -3 14 -9
42 -15 62 -5 20 -7 39 -5 40 2 2 -6 4 -16 5 -12 1 -21 -5 -22 -15z"/>
</g>
</svg>
